<svg width="120" height="120" viewBox="0 0 120 120" fill="none" xmlns="http://www.w3.org/2000/svg">
<path d="M0 60C0 10.59 10.59 0 60 0C109.41 0 120 10.59 120 60C120 109.41 109.41 120 60 120C10.59 120 0 109.41 0 60Z" fill="white" fill-opacity="0.1"/>
<path fill-rule="evenodd" clip-rule="evenodd" d="M60 10C18.825 10 10 18.825 10 60C10 101.175 18.825 110 60 110C101.175 110 110 101.175 110 60C110 18.825 101.175 10 60 10ZM60 17C24.5895 17 17 24.5895 17 60C17 95.4105 24.5895 103 60 103C95.4105 103 103 95.4105 103 60C103 24.5895 95.4105 17 60 17Z" fill="white"/>
<path d="M60.3673 12.952C66.0847 12.952 71.1543 13.5773 75.5763 14.828C80.043 16.034 83.6387 17.3293 86.3633 18.714C89.1327 20.0987 90.83 21.0367 91.4553 21.528L79.1943 42.298C78.4797 41.762 77.229 41.025 75.4423 40.087C73.7003 39.1043 71.735 38.2333 69.5463 37.474C67.3577 36.7147 65.2583 36.335 63.2483 36.335C60.881 36.335 58.9157 36.67 57.3523 37.34C55.789 37.9653 55.0073 39.0597 55.0073 40.623C55.0073 41.695 55.4317 42.6777 56.2803 43.571C57.129 44.4643 58.5583 45.38 60.5683 46.318C62.623 47.256 65.4147 48.328 68.9433 49.534C72.3827 50.6507 75.5317 52.0353 78.3903 53.688C81.249 55.3407 83.7057 57.306 85.7603 59.584C87.8597 61.862 89.49 64.475 90.6513 67.423C91.8127 70.371 92.3933 73.6987 92.3933 77.406C92.3933 82.3193 91.366 86.518 89.3113 90.002C87.3013 93.4413 84.599 96.233 81.2043 98.377C77.8097 100.521 74.013 102.084 69.8143 103.067C65.6603 104.094 61.4393 104.608 57.1513 104.608C50.5853 104.608 44.734 103.893 39.5973 102.464C34.5053 101.035 30.3737 99.4937 27.2023 97.841C24.0757 96.1437 22.155 94.9377 21.4403 94.223L34.1033 72.582C34.5947 72.984 35.6443 73.6317 37.2523 74.525C38.905 75.4183 40.8703 76.3563 43.1483 77.339C45.471 78.3217 47.8607 79.1703 50.3173 79.885C52.774 80.555 55.052 80.89 57.1513 80.89C59.9653 80.89 62.0423 80.488 63.3823 79.684C64.7223 78.88 65.3923 77.7187 65.3923 76.2C65.3923 75.128 64.968 74.123 64.1193 73.185C63.3153 72.247 61.8413 71.2643 59.6973 70.237C57.598 69.165 54.6053 67.9367 50.7193 66.552C46.9673 65.1673 43.394 63.3583 39.9993 61.125C36.6047 58.8917 33.8353 55.9883 31.6913 52.415C29.5473 48.8417 28.4753 44.375 28.4753 39.015C28.4753 33.5657 29.994 28.898 33.0313 25.012C36.0687 21.126 40.0217 18.1557 44.8903 16.101C49.759 14.0017 54.918 12.952 60.3673 12.952Z" fill="white"/>
</svg>
